<?xml version="1.0" standalone="no"?>
<!DOCTYPE svg PUBLIC "-//W3C//DTD SVG 20010904//EN"
 "http://www.w3.org/TR/2001/REC-SVG-20010904/DTD/svg10.dtd">
<svg version="1.0" xmlns="http://www.w3.org/2000/svg"
 width="256.000000pt" height="256.000000pt" viewBox="0 0 256.000000 256.000000"
 preserveAspectRatio="xMidYMid meet">
<metadata>
Created by potrace 1.14, written by Peter Selinger 2001-2017
</metadata>
<g transform="translate(0.000000,256.000000) scale(0.100000,-0.100000)"
fill="#000000" stroke="none">
<path d="M932 1616 l-864 -862 14 -34 c16 -40 -4 -32 343 -125 28 -7 322 -86
655 -175 653 -175 776 -208 915 -245 50 -13 117 -31 150 -40 161 -45 281 -75
300 -75 24 1 49 19 57 41 4 9 -5 56 -18 105 -28 104 -94 352 -99 374 -10 39
-216 809 -224 835 -5 17 -27 100 -50 185 -41 155 -134 504 -192 720 -38 142
-49 160 -92 159 -29 -1 -117 -86 -895 -863z m767 -106 l171 175 -2 -62 -3 -63
-164 -165 c-90 -92 -168 -167 -172 -168 -4 -1 -61 51 -128 116 -67 65 -121
117 -122 115 -1 -2 -2 -116 -3 -254 l-1 -251 -37 -39 c-21 -21 -40 -36 -42
-33 -5 5 -7 235 -6 632 l0 169 169 -173 169 -173 171 174z m171 -367 l0 -277
-45 -93 c-39 -80 -62 -110 -151 -202 -57 -60 -113 -111 -124 -114 -18 -5 -20
0 -20 48 l0 53 53 30 c108 61 184 166 193 266 11 121 9 366 -3 366 -6 0 -13
-4 -15 -9 -1 -5 -51 -59 -110 -120 -72 -74 -108 -105 -109 -93 -8 88 -8 88
143 240 79 80 150 153 158 162 8 10 18 19 23 19 4 1 7 -124 7 -276z"/>
</g>
</svg>
